<svg xmlns="http://www.w3.org/2000/svg" width="217.021" height="205.387" viewBox="0 0 217.021 205.387">
  <path id="profile-icon-SVG-09ijklfgesds" d="M3.589,203.908a6,6,0,0,1-3.09-7.83l22-51.563a44.479,44.479,0,0,1,40.856-27.06h90.182a44.368,44.368,0,0,1,40.856,27.06l21.094,49.219a6.018,6.018,0,0,1-3.143,7.884,5.928,5.928,0,0,1-7.83-3.249l-21.094-49.219a32.5,32.5,0,0,0-29.883-19.656H63.355a32.486,32.486,0,0,0-29.883,19.763l-22,51.4a5.906,5.906,0,0,1-5.486,3.729A5.515,5.515,0,0,1,3.589,203.908Zm144.142-30.2a6.019,6.019,0,1,1,0-12.038h19.6a6.019,6.019,0,1,1,0,12.038ZM64.42,44.105a44.079,44.079,0,1,1,88.158,0c0,22.213-11.985,57.689-44.105,57.689C76.405,101.794,64.42,66.318,64.42,44.105Zm12.038,0c0,19.017,9.908,45.65,32.014,45.65s32.067-26.634,32.067-45.65a32.041,32.041,0,1,0-64.081,0Z" transform="translate(0.518 0.5)" stroke="rgba(0,0,0,0)" stroke-miterlimit="10" stroke-width="1"/>
</svg>
